HIERARCHY
ROOT Hips
{
  OFFSET -257.165 94.4668 8.09714
  CHANNELS 6 Xposition Yposition Zposition Zrotation Xrotation Yrotation
  JOINT RightUpLeg
  {
    OFFSET -8.9458 -8.66707 0.101652
    CHANNELS 3 Zrotation Xrotation Yrotation
    JOINT RightLeg
    {
      OFFSET 0 -44.4227 1.3727
      CHANNELS 3 Zrotation Xrotation Yrotation
      JOINT RightFoot
      {
        OFFSET 0.253549 -42.0924 -1.46059
        CHANNELS 3 Zrotation Xrotation Yrotation
        JOINT RightToes
        {
          OFFSET 0.04 -4.41509 8.4991
          CHANNELS 3 Zrotation Xrotation Yrotation
          End Site
          {
            OFFSET -0.08 -0.137448 9.77979
          }
        }
      }
    }
  }
  JOINT Spine
  {
    OFFSET 0 11.8905 0
    CHANNELS 3 Zrotation Xrotation Yrotation
    JOINT Spine1
    {
      OFFSET 0 25.6574 0.127663
      CHANNELS 3 Zrotation Xrotation Yrotation
      JOINT HEad
      {
        OFFSET 0 8.73416 0.011341
        CHANNELS 3 Zrotation Xrotation Yrotation
        End Site
        {
          OFFSET -0.29 12.7742 2.51395
        }
      }
      JOINT LeftShoulder1
      {
        OFFSET 8.99 -0.362252 -0.22
        CHANNELS 3 Zrotation Xrotation Yrotation
        JOINT LeftArm
        {
          OFFSET 10.2827 -0.00338 0.322123
          CHANNELS 3 Zrotation Xrotation Yrotation
          JOINT LeftForeArm
          {
            OFFSET 32.7669 0.099144 -1.42434
            CHANNELS 3 Zrotation Xrotation Yrotation
            JOINT LeftHand
            {
              OFFSET 27.5643 0.085362 1.02216
              CHANNELS 3 Zrotation Xrotation Yrotation
              End Site
              {
                OFFSET 16.7443 -0.6 1.50291
              }
            }
          }
        }
      }
      JOINT RightShoulder
      {
        OFFSET -8.99 -0.362252 -0.22
        CHANNELS 3 Zrotation Xrotation Yrotation
        JOINT RightArm
        {
          OFFSET -10.2827 -0.00338 0.322123
          CHANNELS 3 Zrotation Xrotation Yrotation
          JOINT RightForeArm
          {
            OFFSET -32.8971 0.099144 -1.42434
            CHANNELS 3 Zrotation Xrotation Yrotation
            JOINT RightHand
            {
              OFFSET -27.4921 0.085362 1.02216
              CHANNELS 3 Zrotation Xrotation Yrotation
              End Site
              {
                OFFSET -16.6312 -0.6 1.50291
              }
            }
          }
        }
      }
    }
  }
  JOINT LeftUpLeg
  {
    OFFSET 8.9458 -8.66707 0.101652
    CHANNELS 3 Zrotation Xrotation Yrotation
    JOINT LeftLeg
    {
      OFFSET 0 -44.4227 1.3727
      CHANNELS 3 Zrotation Xrotation Yrotation
      JOINT LeftFoot
      {
        OFFSET -0.253549 -42.0924 -1.46059
        CHANNELS 3 Zrotation Xrotation Yrotation
        JOINT LeftToes
        {
          OFFSET -0.04 -4.41509 8.4991
          CHANNELS 3 Zrotation Xrotation Yrotation
          End Site
          {
            OFFSET 0.08 -0.047448 9.77979
          }
        }
      }
    }
  }
}
MOTION
Frames:	19
Frame Time:	0.0166667
-251.913 96.3481 49.7946 -5.67538 15.8642 -142.28 -6.91361 9.8598 4.28813 -0.922123 7.17754 -2.28274 94.4851 9.41738 -12.5683 0.0462048 0.000533403 0.662642 8.12624 7.53193 5.25553 0.0098764 -0.00989712 -0.00254533 11.9793 33.2176 20.7856 0 1.59028e-015 -0 -140.566 -55.4938 -146.885 -54.8303 49.9163 -55.0391 5.14118 17.1944 -3.09398 22.274 1.7488 9.48031 91.6671 -22.5376 84.825 38.2392 49.7051 61.6032 -6.71712 19.8606 0.679289 4.91555 -24.1498 11.3749 6.21097 25.1551 7.72485 -19.3203 -12.2761 -2.43843 -1.18447e-009 1.5602e-007 -4.87132e-009 
-251.521 97.0969 52.1531 -5.57701 16.2288 -141.362 -4.74218 4.64685 7.06231 -0.858597 20.6098 -3.50829 76.2181 5.77829 -4.33443 0.0462048 0.000533403 0.662642 9.04125 8.21096 5.21499 0.0102734 -0.00816698 -0.00401673 14.5478 33.6497 19.5718 6.62086e-032 -1.19271e-015 3.18055e-015 -139.478 -54.8626 -144.926 -63.7226 50.1371 -50.4972 7.76035 20.6389 -2.02346 23.0844 1.94013 8.13289 92.3082 -22.5454 85.5199 39.2409 50.7936 61.6522 -8.70967 18.7796 2.77038 4.90301 -24.3308 12.1248 5.54682 25.8933 7.82717 -17.6014 -8.97579 -1.76372 -1.18445e-009 1.5602e-007 -4.87131e-009 
-251.188 97.5176 54.456 -5.48219 16.714 -140.511 -2.8046 2.83118 9.34901 0.0980783 26.4432 -7.84261 64.6196 3.96654 -1.85565 0.0462048 0.000533403 0.662642 10.0149 8.90154 5.04684 0.0107605 -0.00640864 -0.00538043 16.9384 34.0521 18.5662 3.97569e-016 -1.19271e-015 -6.36111e-015 -133.006 -53.7195 -135.699 -70.7458 50.7575 -47.7775 2.04326 10.4901 -4.62681 24.0098 2.20599 6.74354 92.5766 -22.7707 85.9059 40.2881 51.7553 61.7624 -6.83819 19.9491 -0.153155 5.17571 -25.4814 12.8198 5.30391 29.2537 7.59849 -16.3025 -6.46941 -1.2977 -1.18448e-009 1.5602e-007 -4.87131e-009 
-250.977 97.9587 56.7354 -5.37459 17.3319 -139.792 -0.6214 1.21687 11.2026 1.45957 31.0245 -12.2593 50.3164 1.96735 -0.0127261 0.0462048 0.000533403 0.662642 11.0407 9.62798 4.78985 0.0112522 -0.00474145 -0.00669925 19.1634 34.4364 17.7692 -7.95139e-016 3.97569e-016 3.18055e-015 -128.707 -52.4635 -129.715 -74.2605 50.5956 -46.5265 10.9899 27.6624 -0.525096 24.7588 2.4473 5.50538 94.3603 -26.8273 85.1648 44.7087 54.803 61.8553 -8.03495 19.4863 0.896009 5.99228 -26.9315 13.5789 4.92085 33.7043 7.21656 -15.1123 -4.39474 -1.03496 -1.18446e-009 1.5602e-007 -4.8713e-009 
-250.848 98.264 58.9493 -5.23229 18.0768 -139.255 1.58444 0.268095 12.685 2.73287 33.5304 -16.5759 37.1193 0.329712 0.789706 0.0462048 0.000533403 0.662642 12.1285 10.3795 4.47857 0.012132 -0.00292169 -0.00779967 21.1869 34.8215 17.1733 -1.19271e-015 3.97569e-016 -3.18055e-015 -121.005 -49.6294 -119.628 -69.9047 51.9568 -49.9757 -2.97178 4.13772 -6.56442 25.4832 2.69425 4.23375 95.3278 -29.1652 84.8464 47.5992 56.5598 61.433 -6.82254 20.2939 -0.997802 6.87813 -28.9655 14.3358 5.80227 39.1145 5.7714 -14.6486 -2.91072 -0.907853 -1.18446e-009 1.5602e-007 -4.87131e-009 
-250.769 98.4537 61.1364 -5.02968 18.9272 -138.951 3.6796 -0.551591 12.7396 3.04281 34.6978 -18.8867 23.9027 -1.04734 0.986098 0.0462048 0.000533403 0.662642 13.9204 12.0442 3.20717 0.0686523 0.0660945 -0.0716659 21.4076 34.6654 18.2042 2.98177e-016 1.73937e-015 -0 -118.676 -47.7826 -115.773 -66.7911 52.0665 -52.6122 3.04918 14.4311 -6.42202 25.3103 2.49504 3.99066 95.6637 -30.3491 84.6215 49.2834 57.3761 61.0415 -7.44456 20.1038 -0.387753 7.75597 -31.1951 15.0684 7.984 44.416 2.94602 -14.7722 -1.88775 -0.872529 -1.18446e-009 1.5602e-007 -4.87132e-009 
-250.688 98.5055 63.3469 -4.743 19.8444 -138.919 5.27981 -0.963904 11.7071 2.07651 34.0846 -18.816 15.613 -1.97042 0.857448 0.0462048 0.000533403 0.662642 16.2036 14.3303 0.96667 0.0539907 0.0558323 -0.0821133 20.3098 34.2686 20.623 -1.78906e-015 -5.96354e-016 -3.18055e-015 -119.135 -47.0206 -115.267 -64.9493 52.005 -54.2915 -1.0041 10.1609 -4.57426 24.5709 2.15313 4.37988 95.5466 -30.6681 84.2454 46.6948 55.7328 59.6917 -5.3756 19.5928 2.83675 8.50956 -33.2844 15.7008 11.342 48.7906 -1.34965 -15.2992 -1.23592 -0.886062 -1.18447e-009 1.5602e-007 -4.87131e-009 
-250.597 98.4425 65.5842 -4.35887 20.7734 -139.188 5.83335 -0.984682 9.94094 0.780021 33.584 -16.8493 18.26 -2.1213 0.805868 0.0462048 0.000533403 0.662642 18.787 16.9761 -2.19865 0.0373901 0.0427915 -0.0855301 18.061 33.648 24.3776 3.97569e-016 -7.95139e-016 3.18055e-015 -121.492 -47.2039 -117.144 -63.9311 51.8384 -55.3389 2.4989 15.8504 -4.72067 23.3531 1.75102 5.47127 95.1897 -30.4388 83.7501 45.3967 54.9159 59.488 -7.5986 24.6722 -11.7152 9.02367 -34.9071 16.1391 15.4281 51.706 -6.8158 -16.0813 -0.904897 -0.921569 -1.18447e-009 1.5602e-007 -4.87132e-009 
-250.483 98.4348 67.8613 -3.91916 21.5931 -139.74 5.98435 -1.18916 7.33151 -1.0263 33.4407 -13.3384 20.9901 -2.4236 0.973011 0.0462048 0.000533403 0.662642 21.4184 19.7488 -6.1779 0.0199706 0.0327022 -0.0826075 14.988 32.7675 29.2477 -1.59028e-015 0 -6.36111e-015 -125.46 -48.3754 -121.088 -63.9409 51.7113 -56.0057 0.272389 13.2775 -3.37467 21.7786 1.32456 7.71396 92.8904 -33.8726 81.964 47.1745 53.9607 61.4558 -4.72547 19.9767 2.88406 8.23448 -35.8462 15.3919 22.2581 54.9718 -15.3203 -1.89489 -0.176383 0.0477172 -1.18447e-009 1.5602e-007 -4.87132e-009 
-250.322 98.6214 70.3601 -3.06533 20.963 -142.306 6.16131 -3.29367 5.50142 -3.44396 32.8543 -8.59168 12.0158 -3.65265 0.825535 0.0462048 0.000533403 0.662642 22.6406 22.03 -8.77963 0.011471 0.0273328 -0.0797062 11.3303 31.5333 35.0626 2.38542e-015 1.59028e-015 -3.18055e-015 -130.691 -49.9017 -126.757 -64.2716 51.5845 -56.3943 2.54908 16.6104 -3.31681 20.1572 0.910373 10.689 91.2857 -35.1697 80.8864 48.059 53.3621 62.5767 -4.31636 30.9226 -25.0511 7.74647 -35.9314 15.8261 25.6731 55.5388 -20.9499 12.2715 0.637582 0.189489 -1.18446e-009 1.5602e-007 -4.87131e-009 
-250.157 99.0584 73.0602 -1.99403 19.0707 -146.459 5.65313 -6.07724 4.43644 -5.41342 31.5708 -3.09671 2.70928 -4.03369 0.132177 0.0462048 0.000533403 0.662642 22.1034 23.3464 -8.8064 -0.0098731 -0.0237448 0.0240954 8.40288 30.2819 39.9475 2.38542e-015 0 -0 -135.109 -50.9493 -131.705 -64.6898 51.5616 -56.4943 1.55718 15.2339 -2.29027 19.6692 2.81265 2.26467 90.254 -24.6236 82.749 44.2073 53.2212 62.1075 -9.82679 22.0776 1.43426 10.6328 -36.1561 17.7289 32.6156 57.6037 -30.911 -6.70662 -0.618972 -1.1381 -1.18447e-009 1.5602e-007 -4.87132e-009 
-250.02 99.3496 75.8403 -0.885674 16.1005 -151.857 3.46494 -10.237 4.10655 -7.23711 29.775 2.62674 13.9862 -4.73878 0.443195 0.0462048 0.000533403 0.662642 19.8558 23.5023 -6.87232 -0.00253266 -0.0231042 0.026975 5.63965 27.8342 44.2257 -1.59028e-015 0 -0 -138.957 -52.1132 -136.374 -65.0746 51.5744 -56.3821 3.19618 17.2923 -2.24835 18.5172 2.92354 5.05789 89.6293 -25.074 82.6402 42.262 53.0396 61.8238 -6.99763 24.02 -10.3196 13.6385 -35.5581 20.2156 33.6031 56.0896 -35.8744 -25.2734 0.351878 -1.69955 -1.18447e-009 1.5602e-007 -4.8713e-009 
-249.964 99.5564 78.6306 0.11456 12.2307 -158.24 2.80058 -16.0396 3.96614 -8.62642 28.8871 7.35299 7.42689 -6.39092 0.384173 0.0462048 0.000533403 0.662642 16.4489 22.374 -3.3514 0.00309836 -0.0196173 0.026975 3.27658 24.3774 47.757 2.38542e-015 0 -0 -142.727 -53.6227 -141.231 -65.8583 51.4296 -56.1852 2.87854 16.5959 -1.52273 17.6759 3.50783 7.3119 89.1854 -25.1438 82.7219 41.6115 52.9251 62.0008 -9.10339 19.7052 3.23078 16.2196 -34.0082 23.0291 29.1081 51.5362 -35.5642 -43.1833 1.66725 -1.48733 -1.18447e-009 1.5602e-007 -4.87131e-009 
-249.801 100.188 81.3925 0.688547 8.94015 -163.744 0.818158 -20.1687 2.04007 -8.01033 25.7072 8.54944 12.5098 -5.75678 0.556034 0.0462048 0.000533403 0.662642 13.6278 21.0507 -0.497899 0.00309649 -0.0156367 0.026975 1.23199 19.7601 50.2543 -7.95139e-016 0 -3.18055e-015 -146.128 -54.6999 -145.571 -66.4803 51.3235 -55.9183 4.04104 17.8253 -1.41783 16.8997 4.1271 8.98857 88.8625 -25.0516 82.9245 41.6494 52.8278 62.1908 -7.11245 21.576 -5.01889 16.0316 -33.5103 23.6506 21.8322 48.9419 -33.2296 -32.4075 2.5094 -0.312722 -1.18446e-009 1.5602e-007 -4.87131e-009 
-249.736 100.841 84.0649 0.962698 6.16038 -168.521 -0.663613 -23.5813 -1.43112 -6.9838 23.3403 7.78523 8.31202 -5.85089 0.489748 0.0462048 0.000533403 0.662642 11.2753 19.6254 1.79388 0.00309519 -0.0128817 0.026975 -0.660422 14.2262 51.7923 -7.95139e-016 1.59028e-015 -0 -146.285 -52.4185 -144.91 -64.617 53.7153 -54.7782 3.87076 17.3946 -0.754939 16.1301 4.75874 10.1681 88.6792 -24.8846 83.2482 42.1331 52.7562 62.5535 -8.20968 19.5513 2.39365 15.2761 -32.1736 22.7025 14.6664 44.5025 -29.3471 -21.7148 1.80249 -0.556377 -1.18446e-009 1.5602e-007 -4.87132e-009 
-249.755 101.381 86.5727 1.02416 3.85689 -172.638 -2.42758 -25.923 -5.16433 -5.91773 21.3991 5.47161 11.9976 -4.39353 0.620773 0.0462048 0.000533403 0.662642 9.31042 18.1995 3.56332 0.00309403 -0.0104064 0.026975 -1.93485 9.24799 52.9937 -1.98785e-015 -6.36111e-015 1.59028e-015 -147.438 -51.361 -145.789 -63.9624 54.8465 -53.9801 4.47145 17.9772 -0.547696 15.4151 5.37781 10.9955 88.5804 -24.7028 83.6665 42.7946 52.6605 62.7977 -6.8286 20.8285 -3.05107 14.202 -30.2445 20.4685 8.84791 38.7322 -25.146 -11.0587 0.587102 -0.601213 -1.18447e-009 1.5602e-007 -4.87131e-009 
-249.811 101.857 88.9011 0.944778 1.99542 -176.131 -3.41296 -27.846 -8.76204 -5.29065 20.5945 5.81872 9.97088 -4.06388 0.584488 0.0462048 0.000533403 0.662642 7.66815 16.8472 4.84286 0.00309403 -0.0104064 0.026975 -2.78707 4.83487 53.9587 -1.19271e-015 0 1.59028e-015 -148.951 -50.9995 -147.145 -64.0525 55.3579 -53.2853 4.20699 17.5364 0.05636 14.8125 5.99358 11.5152 88.519 -24.5334 84.1518 43.5652 52.543 63.0753 -7.59148 19.7044 1.19741 12.8934 -27.7405 17.1754 5.71282 32.8938 -20.3476 -1.01588 -0.532074 -0.314891 -1.18447e-009 1.5602e-007 -4.87131e-009 
-249.854 102.154 90.9069 0.757262 0.545887 -178.975 -4.2416 -29.8356 -12.2881 -4.93538 22.1269 7.10686 7.90216 -3.74351 0.340938 0.0462048 0.000533403 0.662642 6.27817 15.6261 5.62786 0.00309403 -0.0104064 0.026975 -3.35913 0.983292 54.7279 1.98785e-016 0 -1.59028e-015 -150.495 -51.0189 -148.371 -64.6048 55.6269 -52.6008 4.5122 17.653 0.291731 14.4002 6.63365 11.8736 88.454 -24.4747 84.644 44.3396 52.4075 63.242 -6.78053 20.2852 -2.20647 12.9316 -24.2478 13.4868 4.44782 29.3621 -13.701 -8.00973 -1.05567 -0.308745 -1.18446e-009 1.5602e-007 -4.87131e-009 
-249.808 102.378 92.7067 0.490292 -0.522618 178.866 -4.94571 -31.8196 -15.7157 -4.99342 24.6741 9.45081 5.75651 -3.32759 0.168874 0.0462048 0.000533403 0.662642 5.08944 14.5608 5.92401 0.00309403 -0.0104064 0.026975 -3.76327 -2.29061 55.3017 5.96354e-016 1.59028e-015 -0 -150.519 -50.1187 -144.261 -67.089 55.303 -50.1232 10.7167 3.89432 0.66891 14.204 7.32962 12.119 88.3833 -24.5889 85.0737 45.1186 52.2961 63.4196 -7.389 19.4225 0.370678 12.3433 -21.1365 9.72365 3.75875 28.6819 -5.94087 -6.61735 -1.425 -0.254762 -1.18446e-009 1.5602e-007 -4.87131e-009 
